<?xml version="1.0" encoding="UTF-8" standalone="no"?>
<svg
   xmlns:dc="http://purl.org/dc/elements/1.1/"
   xmlns:cc="http://creativecommons.org/ns#"
   xmlns:rdf="http://www.w3.org/1999/02/22-rdf-syntax-ns#"
   xmlns:svg="http://www.w3.org/2000/svg"
   xmlns="http://www.w3.org/2000/svg"
   xmlns:sodipodi="http://sodipodi.sourceforge.net/DTD/sodipodi-0.dtd"
   xmlns:inkscape="http://www.inkscape.org/namespaces/inkscape"
   fill="#000000"
   height="24"
   viewBox="0 0 24 24"
   width="24"
   id="svg2"
   version="1.1"
   inkscape:version="0.48.4 r9939"
   sodipodi:docname="ic_get_app_black_24px.svg">
  <metadata
     id="metadata12">
    <rdf:RDF>
      <cc:Work
         rdf:about="">
        <dc:format>image/svg+xml</dc:format>
        <dc:type
           rdf:resource="http://purl.org/dc/dcmitype/StillImage" />
        <dc:title></dc:title>
      </cc:Work>
    </rdf:RDF>
  </metadata>
  <defs
     id="defs10" />
  <sodipodi:namedview
     pagecolor="#ffffff"
     bordercolor="#666666"
     borderopacity="1"
     objecttolerance="10"
     gridtolerance="10"
     guidetolerance="10"
     inkscape:pageopacity="0"
     inkscape:pageshadow="2"
     inkscape:window-width="640"
     inkscape:window-height="480"
     id="namedview8"
     showgrid="false"
     inkscape:zoom="9.8333333"
     inkscape:cx="12"
     inkscape:cy="12"
     inkscape:window-x="2028"
     inkscape:window-y="283"
     inkscape:window-maximized="0"
     inkscape:current-layer="svg2" />
  <path
     d="M0 0h24v24H0z"
     fill="none"
     id="path6" />
  <g
     id="g2993"
     transform="matrix(0.73093223,0,0,0.79694308,3.0868802,2.8859312)">
    <path
       id="path2995"
       d="M 12.472441,0.03543307 C 5.5984251,0.03543307 0,5.066929 0,11.338582 c 0,4.996063 3.5787401,9.212598 8.5393699,10.700787 0.6023622,0.1063 0.8503937,-0.248031 0.8503937,-0.531496 0,-0.283464 -0.035433,-1.169291 -0.035433,-2.090551 C 5.8818897,20.09055 5.1732283,18.070866 5.1732283,18.070866 4.6062991,16.759842 3.7913385,16.405511 3.7913385,16.405511 c -1.1338582,-0.673228 0.070866,-0.673228 0.070866,-0.673228 1.2401574,0.07087 1.9133857,1.169291 1.9133857,1.169291 1.0984252,1.736221 2.9055118,1.240158 3.6141732,0.92126 0.1417323,-0.708661 0.4606299,-1.204724 0.8149606,-1.488189 -2.7637795,-0.283464 -5.7047243,-1.27559 -5.7047243,-5.598425 0,-1.2401573 0.496063,-2.2322833 1.3110236,-3.0472439 C 5.6692912,7.4055116 5.2440944,6.2716533 5.9173227,4.7125983 c 0,0 1.0629921,-0.3188977 3.4370078,1.1692913 0.9921265,-0.2480315 2.0551185,-0.3897638 3.1181105,-0.3897638 1.062992,0 2.125984,0.1417323 3.11811,0.3897638 2.374016,-1.488189 3.437008,-1.1692913 3.437008,-1.1692913 0.673228,1.559055 0.248031,2.6929133 0.106299,2.9763778 0.814961,0.8149606 1.27559,1.8070866 1.27559,3.0472439 0,4.358268 -2.905511,5.314961 -5.669291,5.598425 0.425197,0.318898 0.850394,1.027559 0.850394,2.090551 0,1.488189 -0.03543,2.728347 -0.03543,3.082677 0,0.318898 0.212598,0.673229 0.850394,0.531496 4.960629,-1.488189 8.539369,-5.704724 8.539369,-10.700787 0,-6.271653 -5.598425,-11.30314893 -12.47244,-11.30314893 z"
       style="fill:white;fill-opacity:1;fill-rule:nonzero;stroke:none"
       inkscape:connector-curvature="0" />
  </g>
</svg>
